# 3ds Max Wavefront OBJ Exporter v0.97b - (c)2007 guruware
# File Created: 18.07.2012 17:13:12

#
# object Baby
#

v  0.0000 -7.3133 -0.3286
v  0.0000 -4.1397 -0.3286
v  2.2046 -5.9503 -0.3286
v  1.4795 -6.9479 -0.3286
v  2.7393 -6.6383 4.3450
v  2.4039 -6.4679 3.7586
v  1.7143 -7.6433 4.4130
v  3.0434 -6.8161 4.2596
v  1.8099 -7.9502 4.2581
v  1.8945 4.3029 -0.3286
v  0.0000 4.7596 -0.3286
v  0.0000 5.8184 4.5869
v  2.3270 5.0677 4.5869
v  0.0000 -8.1904 4.2505
v  2.6801 3.5029 -0.3286
v  0.0000 1.9378 -0.3286
v  3.6100 3.8508 4.5869
v  0.0000 0.1437 -0.3286
v  2.3938 0.1951 -0.3286
v  3.1407 -0.3599 4.3413
v  2.6670 -0.4419 3.7586
v  3.3730 -0.2905 4.2577
v  4.0524 1.8325 4.5869
v  3.5928 0.0004 4.5869
v  0.0000 4.7275 7.2885
v  2.6650 4.4493 6.5991
v  3.7553 3.3601 5.8365
v  0.0000 2.4741 8.6053
v  2.9249 2.2935 7.8936
v  3.7553 2.0626 6.5842
v  0.0000 0.2819 8.8738
v  2.9249 0.2774 8.3107
v  3.7553 0.2572 6.6215
v  0.0000 -0.9150 5.4178
v  0.0000 -5.1279 4.9805
v  0.0000 -6.9062 3.7586
v  3.3053 0.1439 4.5869
v  2.9896 1.3887 4.7856
v  0.0000 1.3438 5.3939
v  0.0000 -0.5816 4.8303
v  2.9687 2.1238 6.6595
v  0.0000 1.9214 6.9255
v  0.0000 1.7026 7.2031
v  0.0000 0.8896 7.4517
v  0.5773 1.0161 7.3631
v  0.8710 1.3473 7.1312
v  0.8710 1.7566 6.8446
v  0.5773 2.0878 6.6127
v  0.0000 2.2143 6.5241
v  0.8710 0.2904 7.0316
v  0.0000 0.0857 7.1749
v  1.3463 0.8263 6.6564
v  1.3463 1.4886 6.1926
v  0.8710 2.0245 5.8174
v  0.0000 2.2291 5.6741
v  0.8710 -0.1973 6.3352
v  0.0000 -0.4019 6.4785
v  1.3463 0.3386 5.9600
v  1.3463 1.0010 5.4962
v  0.8710 1.5368 5.1210
v  0.0000 1.7415 4.9776
v  0.5773 -0.2606 5.5398
v  0.0000 -0.3871 5.6284
v  0.8710 0.0706 5.3079
v  0.8710 0.4799 5.0213
v  0.5773 0.8111 4.7894
v  0.0000 0.9376 4.7008
v  0.0000 0.1246 4.9494
v  1.0812 -1.0509 4.7803
v  1.6423 -1.0509 4.4999
v  1.6423 -0.5298 4.5610
v  1.0812 -0.5298 4.8414
v  1.2366 -1.3372 4.5871
v  1.5209 -1.2739 4.4596
v  1.5509 -0.4814 4.3496
v  1.1349 -0.4814 4.5680
v  1.3679 -0.1262 4.7918
v  1.2932 0.2981 4.9382
v  1.0547 0.2997 5.0412
v  0.0000 0.0937 5.1517
v  0.0000 -1.2025 5.0016
v  0.0000 -7.9731 4.3629
v  1.4244 -1.2096 4.3026
v  1.5820 -0.9027 3.8255
v  1.5255 0.1807 4.5682
v  1.4508 0.6050 4.7145
v  1.2123 0.6067 4.8176
v  0.4915 -0.4542 6.2051
v  0.2570 -0.4846 6.2350
v  0.2907 -0.5197 5.8753
v  0.5923 -0.4542 6.0136
v  0.5207 -0.4542 5.6935
v  0.2593 -0.4846 5.5766
v  0.0000 -0.4846 6.1449
v  0.0000 -0.5633 5.8753
v  0.4915 -0.3739 6.2051
v  0.2570 -0.4043 6.2350
v  0.5207 -0.3739 5.6935
v  0.5923 -0.3739 6.0136
v  0.0000 -0.4948 5.5609
v  0.0000 -0.4145 5.5609
v  0.2593 -0.4043 5.5766
v  0.1464 -0.6460 5.8645
v  0.0000 -0.6952 5.7422
v  0.0000 -0.6679 5.6380
v  0.2370 -0.5837 5.8679
v  0.1464 -0.5463 5.8180
v  0.0000 -0.5920 5.7142
v  0.0000 0.1996 8.5542
v  2.7308 0.2131 8.0184
v  3.4460 0.2558 6.4527
v  0.0000 -1.2096 4.9985
v  0.0000 0.0958 4.7818
v  0.0000 -0.4043 6.1449
v  0.0000 -0.5136 6.0182
v  0.0000 -0.6037 5.9552
v  0.0000 -0.5040 5.9087
v  -1.4795 -6.9479 -0.3286
v  -2.2046 -5.9503 -0.3286
v  -2.7393 -6.6383 4.3450
v  -1.7143 -7.6433 4.4130
v  -2.4039 -6.4679 3.7586
v  -1.8099 -7.9502 4.2581
v  -3.0434 -6.8161 4.2596
v  -1.8945 4.3029 -0.3286
v  -2.3270 5.0677 4.5869
v  -2.6801 3.5029 -0.3286
v  -3.6100 3.8508 4.5869
v  -2.3938 0.1951 -0.3286
v  -3.1407 -0.3599 4.3413
v  -2.6670 -0.4419 3.7586
v  -3.3730 -0.2905 4.2577
v  -3.5928 0.0004 4.5869
v  -4.0524 1.8325 4.5869
v  -2.6650 4.4493 6.5991
v  -3.7553 3.3601 5.8365
v  -2.9249 2.2935 7.8936
v  -3.7553 2.0626 6.5842
v  -2.9249 0.2774 8.3107
v  -3.7553 0.2572 6.6215
v  -2.9896 1.3887 4.7856
v  -3.3053 0.1439 4.5869
v  -2.9687 2.1238 6.6595
v  -0.5773 1.0161 7.3631
v  -0.8710 1.3473 7.1312
v  -0.8710 1.7566 6.8446
v  -0.5773 2.0878 6.6127
v  -0.8710 0.2904 7.0316
v  -1.3463 0.8263 6.6564
v  -1.3463 1.4886 6.1926
v  -0.8710 2.0245 5.8174
v  -0.8710 -0.1973 6.3352
v  -1.3463 0.3386 5.9600
v  -1.3463 1.0010 5.4962
v  -0.8710 1.5368 5.1210
v  -0.5773 -0.2606 5.5398
v  -0.8710 0.0706 5.3079
v  -0.8710 0.4799 5.0213
v  -0.5773 0.8111 4.7894
v  -1.0812 -1.0509 4.7803
v  -1.0812 -0.5298 4.8414
v  -1.6423 -0.5298 4.5610
v  -1.6423 -1.0509 4.4999
v  -1.5209 -1.2739 4.4596
v  -1.2366 -1.3372 4.5871
v  -1.1349 -0.4814 4.5680
v  -1.5509 -0.4814 4.3496
v  -1.3679 -0.1262 4.7918
v  -1.0547 0.2997 5.0412
v  -1.2932 0.2981 4.9382
v  -1.5255 0.1807 4.5682
v  -1.5820 -0.9027 3.8255
v  -1.4244 -1.2096 4.3026
v  -1.2123 0.6067 4.8176
v  -1.4508 0.6050 4.7145
v  -0.4915 -0.4542 6.2051
v  -0.5923 -0.4542 6.0136
v  -0.2907 -0.5197 5.8753
v  -0.2570 -0.4846 6.2350
v  -0.5207 -0.4542 5.6935
v  -0.2593 -0.4846 5.5766
v  -0.2570 -0.4043 6.2350
v  -0.4915 -0.3739 6.2051
v  -0.5923 -0.3739 6.0136
v  -0.5207 -0.3739 5.6935
v  -0.2593 -0.4043 5.5766
v  -0.1464 -0.6460 5.8645
v  -0.2370 -0.5837 5.8679
v  -0.1464 -0.5463 5.8180
v  -2.7308 0.2131 8.0184
v  -3.4460 0.2558 6.4527
# 191 vertices

vn 0.0000 -0.6886 -0.7251
vn 0.0000 0.0000 -1.0000
vn 0.6495 -0.2105 -0.7307
vn 0.3728 -0.5826 -0.7222
vn -0.7562 0.3697 0.5399
vn -0.6519 0.3802 0.6561
vn -0.1934 0.5501 0.8124
vn 0.8818 -0.4194 -0.2157
vn 0.4099 -0.8845 -0.2228
vn 0.3463 0.6007 -0.7206
vn 0.0000 0.6791 -0.7340
vn -0.0000 0.9958 0.0920
vn 0.4770 0.8784 0.0305
vn -0.0000 -0.9765 -0.2157
vn 0.6488 0.2627 -0.7141
vn 0.8608 0.5055 -0.0588
vn 0.6043 -0.0518 -0.7951
vn -0.7770 -0.0211 0.6291
vn -0.1483 -0.1516 0.9772
vn 0.9548 -0.1650 -0.2472
vn 0.9953 -0.0204 -0.0951
vn 0.9346 -0.2345 -0.2675
vn -0.0000 0.7559 0.6547
vn 0.4912 0.7230 0.4858
vn 0.8998 0.3674 0.2353
vn -0.0000 -0.1017 0.9948
vn 0.5579 0.3050 0.7718
vn 0.9312 0.1180 0.3450
vn -0.0000 0.1529 0.9882
vn 0.5610 0.1456 0.8149
vn 0.9672 -0.0561 0.2477
vn -0.0000 0.3589 0.9334
vn -0.0000 -0.2276 0.9737
vn 0.3221 -0.2538 0.9121
vn -0.0000 -0.5663 0.8242
vn -0.8463 0.2980 0.4415
vn 0.2944 -0.7981 0.5257
vn 0.2925 -0.7320 0.6153
vn 0.0000 -0.7051 0.7091
vn -0.0000 0.4022 0.9155
vn 0.0468 -0.9660 0.2542
vn 0.0162 -0.9681 0.2499
vn -0.0000 -0.9507 0.3100
vn 0.0329 -0.9829 0.1811
vn 0.0000 0.5736 0.8192
vn 0.0000 -0.0611 0.9981
vn 0.3524 0.0296 0.9354
vn 0.5850 0.2972 0.7546
vn 0.5850 0.6075 0.5373
vn 0.3539 0.8671 0.3506
vn -0.0000 0.9577 0.2879
vn 0.5481 -0.4737 0.6894
vn 0.0000 -0.6142 0.7892
vn 0.9095 -0.0743 0.4091
vn 0.9095 0.4098 0.0701
vn 0.5493 0.8088 -0.2103
vn 0.0000 0.9507 -0.3100
vn 0.5493 -0.8088 0.2103
vn 0.9095 -0.4098 -0.0701
vn 0.9095 0.0743 -0.4091
vn 0.5481 0.4737 -0.6894
vn -0.0000 0.6142 -0.7892
vn 0.3539 -0.8671 -0.3506
vn -0.0000 -0.9577 -0.2879
vn 0.5850 -0.6075 -0.5373
vn 0.5850 -0.2972 -0.7546
vn 0.3524 -0.0296 -0.9354
vn -0.0000 0.0611 -0.9981
vn -0.0000 -0.5736 -0.8192
vn -0.6622 -0.4166 0.6229
vn 0.9678 -0.1876 -0.1680
vn 0.8257 0.4585 0.3286
vn -0.4987 0.4678 0.7297
vn 0.1865 -0.4963 0.8479
vn 0.6429 -0.4165 0.6428
vn 0.6816 0.7205 -0.1276
vn -0.4603 0.8877 0.0134
vn 0.6596 -0.2253 0.7171
vn 0.5749 0.0689 0.8153
vn 0.0775 0.2102 0.9746
vn -0.0000 0.5574 0.8302
vn -0.0000 -0.3062 0.9520
vn 0.0000 0.5069 0.8620
vn 0.0000 0.4928 0.8701
vn 0.7652 -0.2313 0.6007
vn 0.9517 -0.0993 0.2906
vn 0.8736 -0.1019 0.4758
vn 0.6603 0.1903 0.7265
vn 0.1799 0.5173 0.8367
vn 0.4971 -0.5468 0.6737
vn -0.0451 -0.6408 0.7663
vn 0.1485 -0.9889 0.0040
vn 0.8124 -0.5719 0.1138
vn 0.6661 -0.5369 -0.5178
vn 0.2336 -0.6110 -0.7563
vn 0.0000 -0.7176 0.6964
vn 0.0000 -0.9984 0.0557
vn 0.5880 0.0000 0.8088
vn -0.0959 0.0000 0.9954
vn 0.7854 0.0000 -0.6190
vn 0.9913 0.0000 0.1318
vn 0.0000 -0.6252 -0.7805
vn -0.0000 0.0000 -1.0000
vn 0.2461 0.0000 -0.9692
vn 0.0540 -0.9600 0.2747
vn 0.0000 -0.9317 0.3631
vn -0.0000 -0.2968 -0.9550
vn 0.9885 0.0578 0.1401
vn 0.0572 0.8752 -0.4804
vn -0.0000 0.9889 -0.1483
vn -0.2766 -0.8248 0.4932
vn 0.3871 -0.2166 0.8962
vn 0.2786 -0.3706 0.8860
vn -0.3981 -0.7978 0.4528
vn 0.1936 -0.3782 0.9053
vn 0.1770 -0.4002 0.8992
vn 0.2388 -0.0971 0.9662
vn 0.2322 -0.0706 0.9701
vn -0.0000 -0.4568 0.8896
vn 0.0000 -0.4594 0.8882
vn 0.0000 -0.9696 0.2447
vn 0.0000 -0.9684 0.2494
vn 0.1299 -0.9827 0.1320
vn 0.1030 -0.9860 0.1312
vn -0.0086 -0.9990 0.0438
vn -0.0369 -0.9987 0.0360
vn 0.0000 -0.3920 0.9200
vn 0.0000 0.9903 0.1388
vn 0.0000 0.0000 1.0000
vn -0.0000 0.4226 0.9063
vn 0.0000 -0.9674 0.2532
vn 0.0000 0.8158 -0.5783
vn -0.3728 -0.5826 -0.7222
vn -0.6495 -0.2105 -0.7307
vn 0.7562 0.3697 0.5399
vn 0.1934 0.5501 0.8124
vn 0.6519 0.3802 0.6561
vn -0.4099 -0.8845 -0.2228
vn -0.8818 -0.4194 -0.2157
vn -0.3463 0.6007 -0.7206
vn -0.4770 0.8784 0.0305
vn -0.6488 0.2627 -0.7141
vn -0.8608 0.5055 -0.0588
vn -0.6043 -0.0518 -0.7951
vn 0.7770 -0.0211 0.6291
vn 0.1483 -0.1516 0.9772
vn -0.9548 -0.1650 -0.2472
vn -0.9346 -0.2345 -0.2675
vn -0.9953 -0.0204 -0.0951
vn -0.4912 0.7230 0.4858
vn -0.8998 0.3674 0.2353
vn -0.5579 0.3050 0.7718
vn -0.9312 0.1180 0.3450
vn -0.5610 0.1456 0.8149
vn -0.9672 -0.0561 0.2477
vn -0.3221 -0.2538 0.9121
vn -0.2925 -0.7320 0.6153
vn -0.2944 -0.7981 0.5257
vn 0.8463 0.2980 0.4415
vn -0.0162 -0.9681 0.2499
vn -0.0468 -0.9660 0.2542
vn -0.0329 -0.9829 0.1811
vn -0.3524 0.0296 0.9354
vn -0.5850 0.2972 0.7546
vn -0.5850 0.6075 0.5373
vn -0.3539 0.8671 0.3506
vn -0.5481 -0.4737 0.6894
vn -0.9095 -0.0743 0.4091
vn -0.9095 0.4098 0.0701
vn -0.5493 0.8088 -0.2103
vn -0.5493 -0.8088 0.2103
vn -0.9095 -0.4098 -0.0701
vn -0.9095 0.0743 -0.4091
vn -0.5481 0.4737 -0.6894
vn -0.3539 -0.8671 -0.3506
vn -0.5850 -0.6075 -0.5373
vn -0.5850 -0.2972 -0.7546
vn -0.3524 -0.0296 -0.9354
vn 0.6622 -0.4166 0.6229
vn 0.4987 0.4678 0.7297
vn -0.8257 0.4585 0.3286
vn -0.9678 -0.1876 -0.1680
vn -0.6429 -0.4165 0.6428
vn -0.1865 -0.4963 0.8479
vn 0.4603 0.8877 0.0134
vn -0.6816 0.7205 -0.1276
vn -0.6596 -0.2253 0.7171
vn -0.0775 0.2102 0.9746
vn -0.5749 0.0689 0.8153
vn -0.8736 -0.1019 0.4758
vn -0.9517 -0.0993 0.2906
vn -0.7652 -0.2313 0.6007
vn -0.1799 0.5173 0.8367
vn -0.6603 0.1903 0.7265
vn -0.4971 -0.5468 0.6737
vn -0.8124 -0.5719 0.1138
vn -0.1485 -0.9889 0.0040
vn 0.0451 -0.6408 0.7663
vn -0.6661 -0.5369 -0.5178
vn -0.2336 -0.6110 -0.7563
vn 0.0959 0.0000 0.9954
vn -0.5880 0.0000 0.8088
vn -0.9913 0.0000 0.1318
vn -0.7854 0.0000 -0.6190
vn -0.2461 0.0000 -0.9692
vn -0.0540 -0.9600 0.2747
vn -0.9885 0.0578 0.1401
vn -0.0572 0.8752 -0.4804
vn 0.2766 -0.8248 0.4932
vn 0.3981 -0.7978 0.4528
vn -0.2786 -0.3706 0.8860
vn -0.3871 -0.2166 0.8962
vn -0.1936 -0.3782 0.9053
vn -0.2322 -0.0706 0.9701
vn -0.2388 -0.0971 0.9662
vn -0.1770 -0.4002 0.8992
vn -0.1030 -0.9860 0.1312
vn -0.1299 -0.9827 0.1320
vn 0.0369 -0.9987 0.0360
vn 0.0086 -0.9990 0.0438
# 220 vertex normals

vt 0.6383 0.3280 0.0000
vt 0.5987 0.3557 0.0000
vt 0.6409 0.3678 0.0000
vt 0.6470 0.3501 0.0000
vt 0.4075 0.4929 0.0000
vt 0.3971 0.4711 0.0000
vt 0.4734 0.4286 0.0000
vt 0.9000 0.3002 0.0000
vt 0.8141 0.3002 0.0000
vt 0.8141 0.0110 0.0000
vt 0.9000 0.0110 0.0000
vt 0.1305 0.3002 0.0000
vt 0.0050 0.3002 0.0000
vt 0.0050 0.0110 0.0000
vt 0.1305 0.0110 0.0000
vt 0.9912 0.0110 0.0000
vt 0.9912 0.3002 0.0000
vt 0.5102 0.4535 0.0000
vt 0.5271 0.4563 0.0000
vt 0.5229 0.4088 0.0000
vt 0.4877 0.4335 0.0000
vt 0.2150 0.0110 0.0000
vt 0.2150 0.3002 0.0000
vt 0.5453 0.3931 0.0000
vt 0.5659 0.4239 0.0000
vt 0.0045 0.5093 0.0000
vt 0.0098 0.4823 0.0000
vt 0.4363 0.3002 0.0000
vt 0.4363 0.0110 0.0000
vt 0.3278 0.0110 0.0000
vt 0.9471 0.6378 0.0000
vt 0.9054 0.7866 0.0000
vt 0.7187 0.7227 0.0000
vt 0.8254 0.6008 0.0000
vt 0.9585 0.5493 0.0000
vt 0.8845 0.5202 0.0000
vt 0.9585 0.4297 0.0000
vt 0.6213 0.5788 0.0000
vt 0.7634 0.4704 0.0000
vt 0.8401 0.4433 0.0000
vt 0.5563 0.4662 0.0000
vt 0.7212 0.3589 0.0000
vt 0.8379 0.3363 0.0000
vt 0.9585 0.3211 0.0000
vt 0.0453 0.3167 0.0000
vt 0.3147 0.3167 0.0000
vt 0.4287 0.3167 0.0000
vt 0.0083 0.7319 0.0000
vt 0.0083 0.7025 0.0000
vt 0.0404 0.6940 0.0000
vt 0.1473 0.6577 0.0000
vt 0.1391 0.7242 0.0000
vt 0.1549 0.9171 0.0000
vt 0.0083 0.9171 0.0000
vt 0.2612 0.6920 0.0000
vt 0.2608 0.7388 0.0000
vt 0.2582 0.9171 0.0000
vt 0.3333 0.7491 0.0000
vt 0.3570 0.9171 0.0000
vt 0.0134 0.3167 0.0000
vt 0.6889 0.9281 0.0000
vt 0.6226 0.9103 0.0000
vt 0.6462 0.8682 0.0000
vt 0.6806 0.8478 0.0000
vt 0.7197 0.8457 0.0000
vt 0.7539 0.8615 0.0000
vt 0.7757 0.8898 0.0000
vt 0.5991 0.8103 0.0000
vt 0.5584 0.8862 0.0000
vt 0.6289 0.7517 0.0000
vt 0.7086 0.7633 0.0000
vt 0.7737 0.7677 0.0000
vt 0.8330 0.7950 0.0000
vt 0.5353 0.7886 0.0000
vt 0.4989 0.8520 0.0000
vt 0.5442 0.7239 0.0000
vt 0.5294 0.6603 0.0000
vt 0.5913 0.6333 0.0000
vt 0.4891 0.6024 0.0000
vt 0.5392 0.5570 0.0000
vt 0.4395 0.5687 0.0000
vt 0.4789 0.5126 0.0000
vt 0.4702 0.7670 0.0000
vt 0.4457 0.8086 0.0000
vt 0.4705 0.7270 0.0000
vt 0.4526 0.6922 0.0000
vt 0.4218 0.6706 0.0000
vt 0.3864 0.6660 0.0000
vt 0.3969 0.7603 0.0000
vt 0.0897 0.5538 0.0000
vt 0.0949 0.6260 0.0000
vt 0.0403 0.6256 0.0000
vt 0.0386 0.5653 0.0000
vt 0.1247 0.5816 0.0000
vt 0.1199 0.6145 0.0000
vt 0.0224 0.6311 0.0000
vt 0.0242 0.5599 0.0000
vt 0.0864 0.5350 0.0000
vt 0.0966 0.6443 0.0000
vt 0.8668 0.8833 0.0000
vt 0.8738 0.8445 0.0000
vt 0.8961 0.8423 0.0000
vt 0.9879 0.8506 0.0000
vt 0.9910 0.9700 0.0000
vt 0.4970 0.3167 0.0000
vt 0.8508 0.9852 0.0000
vt 0.7983 0.9683 0.0000
vt 0.8386 0.8616 0.0000
vt 0.8481 0.8201 0.0000
vt 0.8738 0.8158 0.0000
vt 0.3299 0.5771 0.0000
vt 0.3266 0.5497 0.0000
vt 0.3692 0.5527 0.0000
vt 0.3535 0.5892 0.0000
vt 0.3910 0.5805 0.0000
vt 0.4052 0.5500 0.0000
vt 0.3352 0.5211 0.0000
vt 0.3688 0.5194 0.0000
vt 0.3263 0.5852 0.0000
vt 0.3174 0.5512 0.0000
vt 0.3932 0.5897 0.0000
vt 0.3557 0.5984 0.0000
vt 0.4070 0.5203 0.0000
vt 0.4166 0.5210 0.0000
vt 0.4129 0.5568 0.0000
vt 0.2674 0.6211 0.0000
vt 0.2306 0.5998 0.0000
vt 0.2426 0.5787 0.0000
vt 0.2732 0.6575 0.0000
vt 0.3202 0.6154 0.0000
vt 0.2841 0.6364 0.0000
vt 0.2831 0.6019 0.0000
vt 0.3174 0.5944 0.0000
vt 0.3061 0.9450 0.0000
vt 0.3357 0.9451 0.0000
vt 0.3357 0.9647 0.0000
vt 0.3061 0.9647 0.0000
vt 0.4894 0.9451 0.0000
vt 0.4894 0.9648 0.0000
vt 0.4049 0.9648 0.0000
vt 0.4049 0.9451 0.0000
vt 0.5935 0.9451 0.0000
vt 0.5935 0.9650 0.0000
vt 0.4894 0.9650 0.0000
vt 0.4049 0.9647 0.0000
vt 0.0078 0.9646 0.0000
vt 0.0078 0.9450 0.0000
vt 0.1746 0.9450 0.0000
vt 0.1746 0.9646 0.0000
vt 0.1746 0.9448 0.0000
vt 0.2376 0.9448 0.0000
vt 0.2376 0.9646 0.0000
vt 0.3061 0.9646 0.0000
vt 0.2376 0.9450 0.0000
vt 0.9909 0.9706 0.0000
vt 0.9873 0.8145 0.0000
vt 0.3251 0.5211 0.0000
vt 0.2107 0.6214 0.0000
vt 0.2253 0.5967 0.0000
vt 0.3643 0.6409 0.0000
vt 0.3458 0.6707 0.0000
vt 0.3348 0.6930 0.0000
# 162 texture coords

g Baby
s 1
f 1/1/1 2/2/2 3/3/3 4/4/4 
s 2
f 5/5/5 6/6/6 7/7/7 
s 1
f 4/8/4 3/9/3 8/10/8 9/11/9 
f 10/12/10 11/13/11 12/14/12 13/15/13 
f 4/8/4 9/11/9 14/16/14 1/17/1 
f 10/18/10 15/19/15 16/20/2 11/21/11 
f 10/12/10 13/15/13 17/22/16 15/23/15 
f 2/2/2 18/24/2 19/25/17 3/3/3 
s 2
f 20/26/18 21/27/19 6/6/6 5/5/5 
s 1
f 3/9/3 19/28/17 22/29/20 8/10/8 
f 16/20/2 15/19/15 19/25/17 18/24/2 
f 19/28/17 15/23/15 23/30/21 22/29/20 
f 23/30/21 24/29/22 22/29/20 
f 15/23/15 17/22/16 23/30/21 
f 13/31/13 12/32/12 25/33/23 26/34/24 
f 17/35/16 13/31/13 26/34/24 27/36/25 
f 17/35/16 27/36/25 23/37/21 
f 26/34/24 25/33/23 28/38/26 29/39/27 
f 27/36/25 26/34/24 29/39/27 30/40/28 
f 27/36/25 30/40/28 23/37/21 
f 29/39/27 28/38/26 31/41/29 32/42/30 
f 30/40/28 29/39/27 32/42/30 33/43/31 
f 23/37/21 30/40/28 33/43/31 24/44/22 
f 21/27/19 34/45/32 35/46/33 6/6/34 
f 6/6/34 35/46/33 36/47/35 
s 3
f 21/48/19 20/49/18 37/50/36 23/51/37 
f 21/48/19 23/51/37 38/52/38 
s 1
f 38/52/38 39/53/39 40/54/40 21/48/19 
f 38/52/38 23/51/37 30/55/41 41/56/42 
f 39/53/39 38/52/38 41/56/42 42/57/43 
f 42/57/43 41/56/42 29/58/44 28/59/26 
f 30/55/41 29/58/44 41/56/42 
f 40/60/40 34/45/32 21/27/19 
f 43/61/45 44/62/46 45/63/47 
f 43/61/45 45/63/47 46/64/48 
f 43/61/45 46/64/48 47/65/49 
f 43/61/45 47/65/49 48/66/50 
f 43/61/45 48/66/50 49/67/51 
f 50/68/52 45/63/47 44/62/46 51/69/53 
f 52/70/54 46/64/48 45/63/47 50/68/52 
f 53/71/55 47/65/49 46/64/48 52/70/54 
f 54/72/56 48/66/50 47/65/49 53/71/55 
f 55/73/57 49/67/51 48/66/50 54/72/56 
f 56/74/58 50/68/52 51/69/53 57/75/43 
f 58/76/59 52/70/54 50/68/52 56/74/58 
f 59/77/60 53/78/55 52/70/54 58/76/59 
f 60/79/61 54/80/56 53/78/55 59/77/60 
f 61/81/62 55/82/57 54/80/56 60/79/61 
f 62/83/63 56/74/58 57/75/43 63/84/64 
f 64/85/65 58/76/59 56/74/58 62/83/63 
f 65/86/66 59/77/60 58/76/59 64/85/65 
f 66/87/67 60/79/61 59/77/60 65/86/66 
f 67/88/68 61/81/62 60/79/61 66/87/67 
f 68/89/69 62/83/63 63/84/64 
f 68/89/69 64/85/65 62/83/63 
f 68/89/69 65/86/66 64/85/65 
f 68/89/69 66/87/67 65/86/66 
f 68/89/69 67/88/68 66/87/67 
f 69/90/70 70/91/71 71/92/72 72/93/73 
f 70/91/71 69/90/70 73/94/74 74/95/75 
f 72/93/73 71/92/72 75/96/76 76/97/77 
f 69/90/70 72/93/73 76/97/77 73/98/74 
f 71/92/72 70/91/71 74/99/75 75/96/76 
f 77/100/78 78/101/79 79/102/80 
f 77/100/78 79/102/80 80/103/81 81/104/82 
s 2
f 36/47/83 82/105/84 7/7/7 6/6/6 
s 1
f 77/100/78 83/106/85 84/107/86 85/108/87 
f 79/102/80 78/101/79 86/109/88 87/110/89 
f 78/101/79 77/100/78 85/108/87 86/109/88 
s 2
f 88/111/90 89/112/91 90/113/92 91/114/93 
f 92/115/94 91/114/93 90/113/92 93/116/95 
f 94/117/96 95/118/97 90/113/92 89/112/91 
f 89/112/91 88/111/90 96/119/98 97/120/99 
f 91/114/93 92/115/94 98/121/100 99/122/101 
f 93/116/95 100/123/102 101/124/103 102/125/104 
f 88/111/90 91/114/93 99/122/101 96/119/98 
f 92/115/94 93/116/95 102/125/104 98/121/100 
s 1
f 103/126/105 104/127/106 105/128/107 106/129/108 
f 103/130/105 107/131/109 108/132/110 104/133/106 
f 107/131/109 106/129/108 105/128/107 108/132/110 
s 8
f 37/134/111 20/135/112 22/136/113 24/137/114 
f 7/138/115 9/139/116 8/140/117 5/141/118 
f 82/142/119 14/143/120 9/144/116 7/138/115 
f 22/136/113 20/135/112 5/141/118 8/145/117 
f 31/146/121 109/147/122 110/148/123 32/149/124 
f 32/149/124 110/150/123 111/151/125 33/152/126 
f 37/134/111 24/153/114 33/152/126 111/154/125 
s 1
f 77/100/78 81/104/82 112/155/127 83/106/85 
f 79/102/80 87/110/89 113/156/128 80/103/81 
s 2
f 93/116/95 90/113/92 95/118/97 100/123/102 
f 89/112/91 97/120/99 114/157/129 94/117/96 
s 1
f 103/126/105 106/129/108 115/158/130 116/159/131 
f 107/131/109 103/130/105 116/160/131 117/161/132 
f 115/162/130 106/129/108 107/131/109 117/161/132 
f 1/1/1 118/4/133 119/3/134 2/2/2 
s 2
f 120/5/135 121/7/136 122/6/137 
s 1
f 118/8/133 123/11/138 124/10/139 119/9/134 
f 125/12/140 126/15/141 12/14/12 11/13/11 
f 118/8/133 1/17/1 14/16/14 123/11/138 
f 125/18/140 11/21/11 16/20/2 127/19/142 
f 125/12/140 127/23/142 128/22/143 126/15/141 
f 2/2/2 119/3/134 129/25/144 18/24/2 
s 2
f 130/26/145 120/5/135 122/6/137 131/27/146 
s 1
f 119/9/134 124/10/139 132/29/147 129/28/144 
f 16/20/2 18/24/2 129/25/144 127/19/142 
f 132/29/147 133/29/148 134/30/149 129/28/144 
f 129/28/144 134/30/149 127/23/142 
f 127/23/142 134/30/149 128/22/143 
f 126/31/141 135/34/150 25/33/23 12/32/12 
f 128/35/143 136/36/151 135/34/150 126/31/141 
f 128/35/143 134/37/149 136/36/151 
f 135/34/150 137/39/152 28/38/26 25/33/23 
f 136/36/151 138/40/153 137/39/152 135/34/150 
f 136/36/151 134/37/149 138/40/153 
f 137/39/152 139/42/154 31/41/29 28/38/26 
f 138/40/153 140/43/155 139/42/154 137/39/152 
f 134/37/149 133/44/148 140/43/155 138/40/153 
f 131/27/146 122/6/156 35/46/33 34/45/32 
f 122/6/156 36/47/35 35/46/33 
s 3
f 131/48/146 141/52/157 134/51/158 142/50/159 
f 131/48/146 142/50/159 130/49/145 
s 1
f 141/52/157 131/48/146 40/54/40 39/53/39 
f 141/52/157 143/56/160 138/55/161 134/51/158 
f 39/53/39 42/57/43 143/56/160 141/52/157 
f 42/57/43 28/59/26 137/58/162 143/56/160 
f 138/55/161 143/56/160 137/58/162 
f 40/60/40 131/27/146 34/45/32 
f 43/61/45 144/63/163 44/62/46 
f 43/61/45 145/64/164 144/63/163 
f 43/61/45 146/65/165 145/64/164 
f 43/61/45 147/66/166 146/65/165 
f 43/61/45 49/67/51 147/66/166 
f 148/68/167 51/69/53 44/62/46 144/63/163 
f 149/70/168 148/68/167 144/63/163 145/64/164 
f 150/71/169 149/70/168 145/64/164 146/65/165 
f 151/72/170 150/71/169 146/65/165 147/66/166 
f 55/73/57 151/72/170 147/66/166 49/67/51 
f 152/74/171 57/75/43 51/69/53 148/68/167 
f 153/76/172 152/74/171 148/68/167 149/70/168 
f 154/77/173 153/76/172 149/70/168 150/78/169 
f 155/79/174 154/77/173 150/78/169 151/80/170 
f 61/81/62 155/79/174 151/80/170 55/82/57 
f 156/83/175 63/84/64 57/75/43 152/74/171 
f 157/85/176 156/83/175 152/74/171 153/76/172 
f 158/86/177 157/85/176 153/76/172 154/77/173 
f 159/87/178 158/86/177 154/77/173 155/79/174 
f 67/88/68 159/87/178 155/79/174 61/81/62 
f 68/89/69 63/84/64 156/83/175 
f 68/89/69 156/83/175 157/85/176 
f 68/89/69 157/85/176 158/86/177 
f 68/89/69 158/86/177 159/87/178 
f 68/89/69 159/87/178 67/88/68 
f 160/90/179 161/93/180 162/92/181 163/91/182 
f 163/91/182 164/95/183 165/94/184 160/90/179 
f 161/93/180 166/97/185 167/96/186 162/92/181 
f 160/90/179 165/98/184 166/97/185 161/93/180 
f 162/92/181 167/96/186 164/99/183 163/91/182 
f 168/100/187 169/102/188 170/101/189 
f 168/100/187 81/104/82 80/103/81 169/102/188 
s 2
f 36/47/83 122/6/137 121/7/136 82/105/84 
s 1
f 168/100/187 171/108/190 172/107/191 173/106/192 
f 169/102/188 174/110/193 175/109/194 170/101/189 
f 170/101/189 175/109/194 171/108/190 168/100/187 
s 2
f 176/111/195 177/114/196 178/113/197 179/112/198 
f 180/115/199 181/116/200 178/113/197 177/114/196 
f 94/117/96 179/112/198 178/113/197 95/118/97 
f 179/112/198 182/120/201 183/119/202 176/111/195 
f 177/114/196 184/122/203 185/121/204 180/115/199 
f 181/116/200 186/125/205 101/124/103 100/123/102 
f 176/111/195 183/119/202 184/122/203 177/114/196 
f 180/115/199 185/121/204 186/125/205 181/116/200 
s 1
f 187/126/206 188/129/207 105/128/107 104/127/106 
f 187/130/206 104/133/106 108/132/110 189/131/208 
f 189/131/208 108/132/110 105/128/107 188/129/207 
s 8
f 142/134/209 133/137/210 132/136/211 130/135/212 
f 121/138/213 120/141/214 124/140/215 123/139/216 
f 82/142/119 121/138/213 123/144/216 14/143/120 
f 132/136/211 124/145/215 120/141/214 130/135/212 
f 31/146/121 139/149/217 190/148/218 109/147/122 
f 139/149/217 140/152/219 191/151/220 190/150/218 
f 142/134/209 191/154/220 140/152/219 133/153/210 
s 1
f 168/100/187 173/106/192 112/155/127 81/104/82 
f 169/102/188 80/103/81 113/156/128 174/110/193 
s 2
f 181/116/200 100/123/102 95/118/97 178/113/197 
f 179/112/198 94/117/96 114/157/129 182/120/201 
s 1
f 187/126/206 116/159/131 115/158/130 188/129/207 
f 189/131/208 117/161/132 116/160/131 187/130/206 
f 115/162/130 117/161/132 189/131/208 188/129/207 
# 148 polygons - 40 triangles

